<svg width="601" height="338" xmlns="http://www.w3.org/2000/svg" xmlns:xlink="http://www.w3.org/1999/xlink" xml:space="preserve" overflow="hidden"><defs><clipPath id="clip0"><rect x="0" y="0" width="601" height="338"/></clipPath><clipPath id="clip1"><rect x="485" y="39" width="79" height="23"/></clipPath><clipPath id="clip2"><rect x="485" y="39" width="79" height="23"/></clipPath><clipPath id="clip3"><rect x="485" y="39" width="79" height="23"/></clipPath><clipPath id="clip4"><rect x="41" y="260" width="29" height="29"/></clipPath><clipPath id="clip5"><rect x="41" y="260" width="29" height="29"/></clipPath><clipPath id="clip6"><rect x="41" y="260" width="29" height="29"/></clipPath><clipPath id="clip7"><rect x="236" y="260" width="33" height="33"/></clipPath><clipPath id="clip8"><rect x="236" y="260" width="33" height="33"/></clipPath><clipPath id="clip9"><rect x="236" y="260" width="33" height="33"/></clipPath></defs><g clip-path="url(#clip0)"><path d="M0 0 600.889 0 600.889 338 0 338Z" fill="#FFFFFF" fill-rule="nonzero" fill-opacity="1" transform="scale(1.00018 1)"/><g clip-path="url(#clip1)"><g clip-path="url(#clip2)"><g clip-path="url(#clip3)"><path d="M0.174605 21.5606 24.0954 21.5606" stroke="#1D1B1A" stroke-width="0.258789" stroke-linecap="butt" stroke-linejoin="miter" stroke-miterlimit="4" stroke-opacity="1" fill="none" fill-rule="nonzero" transform="matrix(1.01897 0 0 1 485.415 39.0578)"/><path d="M0.174605 22.4024 24.0954 22.4024" stroke="#1D1B1A" stroke-width="0.258789" stroke-linecap="butt" stroke-linejoin="miter" stroke-miterlimit="4" stroke-opacity="1" fill="none" fill-rule="nonzero" transform="matrix(1.01897 0 0 1 485.415 39.0578)"/><path d="M0.174605 20.7 24.0954 20.7" stroke="#1D1B1A" stroke-width="0.258789" stroke-linecap="butt" stroke-linejoin="miter" stroke-miterlimit="4" stroke-opacity="1" fill="none" fill-rule="nonzero" transform="matrix(1.01897 0 0 1 485.415 39.0578)"/><path d="M0.174605 19.8426 24.0954 19.8426" stroke="#1D1B1A" stroke-width="0.258789" stroke-linecap="butt" stroke-linejoin="miter" stroke-miterlimit="4" stroke-opacity="1" fill="none" fill-rule="nonzero" transform="matrix(1.01897 0 0 1 485.415 39.0578)"/><path d="M0.174605 18.982 24.0954 18.982" stroke="#1D1B1A" stroke-width="0.258789" stroke-linecap="butt" stroke-linejoin="miter" stroke-miterlimit="4" stroke-opacity="1" fill="none" fill-rule="nonzero" transform="matrix(1.01897 0 0 1 485.415 39.0578)"/><path d="M2.32286 5.18513 0 5.18513 0 4.56154 0.623587 4.27469 0.623587 0.982153 0 0.6953 0 0.0717126 2.32286 0.0717126 2.32286 0.6953 1.69928 0.982153 1.69928 4.28404 2.32286 4.57089Z" fill="#1D1B1A" fill-rule="nonzero" fill-opacity="1" transform="matrix(1.01897 0 0 1 485.415 39.0578)"/><path d="M7.49863 5.18513 6.12675 5.18513 4.11879 1.32201 4.08761 1.32201C4.08761 1.50285 4.11256 1.68057 4.12191 1.85829 4.13127 2.03601 4.14062 2.17009 4.14374 2.33222 4.14685 2.49435 4.14374 2.64401 4.14374 2.7812L4.14374 5.18513 3.17718 5.18513 3.17718 0.0810667 4.55219 0.0810667 6.54767 3.90366 6.5695 3.90366C6.5695 3.72593 6.5539 3.55133 6.54455 3.37984 6.54455 3.30502 6.54455 3.22707 6.54455 3.14912 6.54455 3.07117 6.54455 2.99322 6.54455 2.91527 6.54455 2.83732 6.54455 2.76249 6.54455 2.69078L6.54455 0.0810667 7.51427 0.0810667Z" fill="#1D1B1A" fill-rule="nonzero" fill-opacity="1" transform="matrix(1.01897 0 0 1 485.415 39.0578)"/><path d="M10.6384 5.18513 9.55962 5.18513 9.55962 0.982153 8.28123 0.982153 8.28123 0.0810667 11.9168 0.0810667 11.9168 0.982153 10.6384 0.982153Z" fill="#1D1B1A" fill-rule="nonzero" fill-opacity="1" transform="matrix(1.01897 0 0 1 485.415 39.0578)"/><path d="M15.5897 5.18513 12.6589 5.18513 12.6589 0.0810667 15.5897 0.0810667 15.5897 0.96656 13.7189 0.96656 13.7189 2.08902 15.4494 2.08902 15.4494 2.97451 13.7408 2.97451 13.7408 4.29028 15.6115 4.29028Z" fill="#1D1B1A" fill-rule="nonzero" fill-opacity="1" transform="matrix(1.01897 0 0 1 485.415 39.0578)"/><path d="M17.7379 3.22395 17.7379 5.18513 16.656 5.18513 16.656 0.0810667 18.0529 0.0810667C18.5648 0.0403561 19.0755 0.173257 19.5027 0.458337 19.8303 0.747351 20.0034 1.17324 19.9704 1.60886 19.9721 1.76966 19.9479 1.92969 19.8987 2.08278 19.8554 2.21811 19.7924 2.34629 19.7116 2.46317 19.6355 2.57136 19.5454 2.66889 19.4435 2.75314 19.3475 2.83315 19.2429 2.90217 19.1316 2.95892L19.8239 4.06891 20.0826 4.47736 20.304 4.83592 20.463 5.08535 20.5222 5.18513 19.3312 5.18513 18.2087 3.22395ZM17.7379 2.34469 18.031 2.34469C18.2588 2.37159 18.4884 2.31389 18.6765 2.18256 18.815 2.04232 18.8866 1.84921 18.8729 1.6525 18.8928 1.45609 18.8147 1.26245 18.664 1.13493 18.4682 1.01954 18.2421 0.966267 18.0155 0.982153L17.7379 0.982153Z" fill="#1D1B1A" fill-rule="nonzero" fill-opacity="1" transform="matrix(1.01897 0 0 1 485.415 39.0578)"/><path d="M25.4642 5.18513 24.0923 5.18513 22.0843 1.32201 22.0531 1.32201C22.0531 1.50285 22.0781 1.68057 22.0875 1.85829 22.0968 2.03601 22.1062 2.17009 22.1093 2.33222 22.1124 2.49435 22.1093 2.64401 22.1093 2.7812L22.1093 5.18513 21.1427 5.18513 21.1427 0.0810667 22.5084 0.0810667 24.5101 3.90366 24.532 3.90366C24.532 3.72593 24.532 3.55133 24.507 3.37984 24.507 3.30502 24.507 3.22707 24.507 3.14912 24.507 3.07117 24.507 2.99322 24.507 2.91527 24.507 2.83732 24.507 2.76249 24.507 2.69078L24.507 0.0810667 25.4766 0.0810667Z" fill="#1D1B1A" fill-rule="nonzero" fill-opacity="1" transform="matrix(1.01897 0 0 1 485.415 39.0578)"/><path d="M29.6547 5.18513 29.3086 3.96913 27.547 3.96913 27.1947 5.18513 26.1034 5.18513 27.7497 0.0592408 29.0748 0.0592408 30.7397 5.18513ZM29.0561 3.06181 28.7443 1.9456C28.7277 1.90194 28.7058 1.83335 28.6788 1.73981 28.6508 1.64315 28.6227 1.53714 28.5915 1.42801 28.5603 1.31889 28.5292 1.19729 28.5011 1.08192 28.473 0.96656 28.4543 0.86679 28.4418 0.770129L28.4075 0.950974C28.4075 1.01957 28.3732 1.0944 28.3545 1.17234 28.3358 1.25029 28.314 1.32824 28.2922 1.40931 28.2703 1.49038 28.2516 1.56209 28.2329 1.63068L28.183 1.81776C28.183 1.87076 28.1549 1.90818 28.1487 1.93624L27.8369 3.05246Z" fill="#1D1B1A" fill-rule="nonzero" fill-opacity="1" transform="matrix(1.01897 0 0 1 485.415 39.0578)"/><path d="M33.1936 5.18513 32.1147 5.18513 32.1147 0.982153 30.8333 0.982153 30.8333 0.0810667 34.4719 0.0810667 34.4719 0.982153 33.1936 0.982153Z" fill="#1D1B1A" fill-rule="nonzero" fill-opacity="1" transform="matrix(1.01897 0 0 1 485.415 39.0578)"/><path d="M37.1596 5.18513 34.8367 5.18513 34.8367 4.56154 35.4603 4.27469 35.4603 0.982153 34.8367 0.6953 34.8367 0.0717126 37.1596 0.0717126 37.1596 0.6953 36.536 0.982153 36.536 4.28404 37.1596 4.57089Z" fill="#1D1B1A" fill-rule="nonzero" fill-opacity="1" transform="matrix(1.01897 0 0 1 485.415 39.0578)"/><path d="M42.3759 2.62531C42.3799 2.98867 42.3325 3.35078 42.2356 3.70099 42.1554 4.00405 42.012 4.28673 41.8147 4.53036 41.6235 4.76415 41.3785 4.94813 41.1006 5.06665 40.4459 5.31599 39.7225 5.31599 39.0678 5.06665 38.7893 4.94773 38.5433 4.76383 38.3506 4.53036 38.1555 4.28464 38.0133 4.00121 37.9328 3.69787 37.8368 3.34649 37.7907 2.98332 37.7956 2.61906 37.7907 2.25481 37.8368 1.89165 37.9328 1.54026 38.0127 1.23863 38.1552 0.957148 38.3506 0.714008 38.5445 0.482834 38.7918 0.302046 39.0708 0.187076 39.7266-0.0624613 40.4512-0.0624613 41.1069 0.187076 41.3828 0.304234 41.6267 0.486024 41.8177 0.717126 42.0142 0.965516 42.1567 1.25228 42.2356 1.55897 42.3316 1.9062 42.3787 2.26507 42.3759 2.62531ZM38.9118 2.62531C38.9088 2.86715 38.9318 3.10863 38.9804 3.34555 39.0194 3.53777 39.0921 3.72148 39.1956 3.88807 39.2872 4.02962 39.4126 4.14636 39.5604 4.22792 39.7225 4.31005 39.9024 4.35077 40.0842 4.3464 40.2688 4.35102 40.4521 4.31036 40.6174 4.22792 40.7648 4.14714 40.8893 4.03018 40.979 3.88807 41.0804 3.72107 41.1511 3.53736 41.1879 3.34555 41.2366 3.10863 41.2597 2.86715 41.2566 2.62531 41.2597 2.38346 41.2366 2.14197 41.1879 1.90506 41.1521 1.71292 41.0813 1.52901 40.979 1.36254 40.8911 1.21809 40.7664 1.0997 40.6174 1.01957 40.4543 0.937049 40.2731 0.896331 40.0904 0.901085 39.9077 0.897105 39.7269 0.93777 39.5635 1.01957 39.4135 1.10037 39.2866 1.21849 39.1956 1.36254 39.0889 1.52814 39.0138 1.71209 38.9742 1.90506 38.9278 2.14221 38.9069 2.38368 38.9118 2.62531Z" fill="#1D1B1A" fill-rule="nonzero" fill-opacity="1" transform="matrix(1.01897 0 0 1 485.415 39.0578)"/><path d="M47.561 5.18513 46.1891 5.18513 44.1812 1.32201 44.15 1.32201C44.1656 1.50285 44.1749 1.68057 44.1843 1.85829 44.1936 2.03601 44.203 2.17009 44.2092 2.33222 44.2154 2.49435 44.2092 2.64401 44.2092 2.7812L44.2092 5.18513 43.2427 5.18513 43.2427 0.0810667 44.6083 0.0810667 46.6131 3.90366 46.6319 3.90366C46.6319 3.72593 46.6319 3.55133 46.61 3.37984L46.61 3.14912 46.61 2.91527C46.61 2.83732 46.61 2.76249 46.61 2.69078L46.61 0.0810667 47.5797 0.0810667Z" fill="#1D1B1A" fill-rule="nonzero" fill-opacity="1" transform="matrix(1.01897 0 0 1 485.415 39.0578)"/><path d="M51.7578 5.18513 51.4085 3.96913 49.6469 3.96913 49.2946 5.18513 48.2033 5.18513 49.8589 0.0592408 51.1809 0.0592408 52.8459 5.18513ZM51.156 3.06181 50.8224 1.9456C50.8224 1.90194 50.7881 1.83335 50.76 1.73981 50.7319 1.64627 50.7007 1.53714 50.6696 1.42801 50.6384 1.31889 50.6104 1.19729 50.5823 1.08192 50.5542 0.96656 50.5324 0.86679 50.52 0.770129 50.52 0.820018 50.5013 0.882375 50.4856 0.950974 50.4701 1.01957 50.4513 1.0944 50.4326 1.17234 50.4139 1.25029 50.3921 1.32824 50.3703 1.40931 50.3485 1.49038 50.3298 1.56209 50.311 1.63068L50.2611 1.81776C50.2456 1.87076 50.2362 1.90818 50.2269 1.93624L49.9151 3.05246Z" fill="#1D1B1A" fill-rule="nonzero" fill-opacity="1" transform="matrix(1.01897 0 0 1 485.415 39.0578)"/><path d="M53.482 5.18513 53.482 0.0810667 54.5639 0.0810667 54.5639 4.29028 56.4347 4.29028 56.4347 5.18513Z" fill="#1D1B1A" fill-rule="nonzero" fill-opacity="1" transform="matrix(1.01897 0 0 1 485.415 39.0578)"/><path d="M63.0977 2.58477C63.1045 2.96924 63.0453 3.35203 62.9231 3.71658 62.7136 4.33808 62.2203 4.82233 61.5949 5.01988 61.2394 5.13453 60.8677 5.19034 60.4942 5.18513L59.1504 5.18513 59.1504 0.0810667 60.6439 0.0810667C60.9881 0.0761101 61.3311 0.129885 61.6572 0.240081 62.2487 0.440006 62.7161 0.899433 62.9262 1.48725 63.0487 1.83988 63.1067 2.21162 63.0977 2.58477ZM62.0033 2.60971C62.007 2.36061 61.9777 2.11211 61.916 1.87076 61.8692 1.68549 61.7853 1.51158 61.6697 1.35942 61.5649 1.22367 61.4277 1.11645 61.2706 1.04763 61.0985 0.981342 60.9155 0.948533 60.7312 0.950974L60.2323 0.950974 60.2323 4.29028 60.6314 4.29028C61.0199 4.31881 61.3993 4.16429 61.6572 3.87248 61.9145 3.50384 62.0367 3.0579 62.0033 2.60971Z" fill="#1D1B1A" fill-rule="nonzero" fill-opacity="1" transform="matrix(1.01897 0 0 1 485.415 39.0578)"/><path d="M66.9515 5.18513 66.6022 3.96913 64.8531 3.96913 64.5008 5.18513 63.4095 5.18513 65.0558 0.0592408 66.3809 0.0592408 68.0459 5.18513ZM66.3529 3.06181 66.0223 1.9456 65.9599 1.73981C65.9319 1.64315 65.9038 1.53714 65.8727 1.42801 65.8415 1.31889 65.8103 1.19729 65.7822 1.08192 65.7541 0.96656 65.7354 0.86679 65.723 0.770129 65.723 0.820018 65.7012 0.882375 65.6856 0.950974 65.67 1.01957 65.6544 1.0944 65.6357 1.17234 65.617 1.25029 65.5951 1.32824 65.5734 1.40931 65.5515 1.49038 65.5328 1.56209 65.5141 1.63068L65.4642 1.81776C65.4486 1.87076 65.4361 1.90818 65.4299 1.93624L65.1181 3.05246Z" fill="#1D1B1A" fill-rule="nonzero" fill-opacity="1" transform="matrix(1.01897 0 0 1 485.415 39.0578)"/><path d="M70.4404 5.18513 69.3617 5.18513 69.3617 0.982153 68.0802 0.982153 68.0802 0.0810667 71.7126 0.0810667 71.7126 0.982153 70.4342 0.982153Z" fill="#1D1B1A" fill-rule="nonzero" fill-opacity="1" transform="matrix(1.01897 0 0 1 485.415 39.0578)"/><path d="M75.3732 5.18513 75.0238 3.96913 73.2715 3.96913 72.9192 5.18513 71.8279 5.18513 73.4773 0.0592408 74.7993 0.0592408 76.4646 5.18513ZM74.7712 3.06181 74.4439 1.9456C74.4439 1.90194 74.4096 1.83335 74.3815 1.73981 74.3535 1.64627 74.3223 1.53714 74.2911 1.42801 74.2599 1.31889 74.2319 1.19729 74.2038 1.08192 74.1776 0.979299 74.158 0.875172 74.1446 0.770129 74.1446 0.820018 74.1227 0.882375 74.1071 0.950974 74.0916 1.01957 74.0728 1.0944 74.0541 1.17234 74.0354 1.25029 74.0136 1.32824 73.9918 1.40931 73.9699 1.49038 73.9512 1.56209 73.9325 1.63068L73.8827 1.81776C73.867 1.87076 73.8577 1.90818 73.8515 1.93624L73.5241 3.05246Z" fill="#1D1B1A" fill-rule="nonzero" fill-opacity="1" transform="matrix(1.01897 0 0 1 485.415 39.0578)"/><path d="M3.20836 10.177C3.21204 10.3907 3.17172 10.603 3.08988 10.8005 3.01479 10.9809 2.89837 11.1411 2.75002 11.2682 2.58846 11.4076 2.4009 11.5136 2.19815 11.58 1.95538 11.6521 1.70305 11.6868 1.44984 11.6829 1.20984 11.6838 0.970436 11.6587 0.735833 11.608 0.519071 11.5578 0.309544 11.4802 0.112246 11.3774L0.112246 10.3516C0.224491 10.4077 0.336737 10.4576 0.452101 10.5074 0.567464 10.5573 0.682828 10.6041 0.798191 10.6415 0.913644 10.6806 1.03129 10.7129 1.15052 10.7382 1.26668 10.7603 1.38461 10.7718 1.50285 10.7724 1.6082 10.7742 1.71324 10.7606 1.81464 10.732 1.89006 10.7087 1.96004 10.6705 2.02042 10.6197 2.07234 10.5729 2.11195 10.514 2.13578 10.4482 2.16159 10.3784 2.17426 10.3043 2.1732 10.23 2.16736 10.1399 2.13836 10.0529 2.08902 9.97738 2.04561 9.89844 1.98738 9.82851 1.91753 9.77158 1.83611 9.7 1.74726 9.63728 1.6525 9.58455L1.30642 9.39122C1.19729 9.33819 1.07881 9.26961 0.944732 9.19165 0.808939 9.10782 0.683371 9.00838 0.570582 8.89548 0.448219 8.77102 0.348043 8.62659 0.274379 8.46833 0.191146 8.27995 0.150682 8.0755 0.155897 7.86969 0.15022 7.656 0.189524 7.44358 0.271261 7.24609 0.340145 7.0722 0.446617 6.91568 0.583054 6.78775 0.730978 6.65898 0.904045 6.56235 1.09127 6.50401 1.30822 6.43654 1.53447 6.40393 1.76163 6.40736 1.8815 6.40668 2.0013 6.41397 2.1202 6.42919 2.24651 6.44961 2.37146 6.47773 2.49435 6.51337 2.61291 6.54368 2.72953 6.58118 2.84356 6.62562 2.95892 6.66927 3.08052 6.71915 3.20212 6.77839L2.83732 7.62025C2.73443 7.57037 2.63466 7.52673 2.54424 7.48928 2.45775 7.45309 2.36927 7.42184 2.27921 7.39575 2.19629 7.37177 2.11194 7.35303 2.02666 7.33962 1.94417 7.32616 1.8608 7.31886 1.77723 7.3178 1.62386 7.30807 1.4731 7.36095 1.35942 7.46434 1.26044 7.56797 1.20856 7.70783 1.216 7.85099 1.21358 7.9291 1.22849 8.00684 1.25964 8.07858 1.29223 8.14956 1.33891 8.21325 1.39683 8.26568 1.47342 8.33358 1.55703 8.39314 1.64627 8.44339 1.74605 8.50258 1.87076 8.57123 2.01419 8.64919 2.15761 8.72709 2.34781 8.83622 2.49747 8.93289 2.63536 9.02122 2.76204 9.12593 2.87474 9.24467 2.98055 9.36913 3.06295 9.51177 3.11794 9.6656 3.17927 9.82904 3.20995 10.0024 3.20836 10.177Z" fill="#1D1B1A" fill-rule="nonzero" fill-opacity="1" transform="matrix(1.01897 0 0 1 485.415 39.0578)"/><path d="M7.46434 8.08481C7.46525 8.30406 7.43048 8.52211 7.36145 8.73024 7.29379 8.93357 7.17955 9.11826 7.02783 9.26961 6.85058 9.43944 6.63749 9.56728 6.40424 9.64382 6.10308 9.74499 5.78645 9.79246 5.46886 9.78412L5.21943 9.78412 5.21943 11.5987 4.14997 11.5987 4.14997 6.49154 5.56863 6.49154C5.85514 6.48653 6.14081 6.52329 6.41671 6.60067 6.63344 6.66294 6.83508 6.76907 7.00912 6.91247 7.16202 7.04866 7.2797 7.2198 7.35209 7.41133 7.43051 7.62701 7.46855 7.85534 7.46434 8.08481ZM5.2319 8.89233 5.44703 8.89233C5.69039 8.90968 5.93262 8.84606 6.1361 8.71154 6.30145 8.56229 6.38691 8.34402 6.36683 8.12221 6.38453 7.91333 6.30793 7.70745 6.15792 7.56098 5.97094 7.42359 5.74068 7.35827 5.50939 7.37704L5.2319 7.37704Z" fill="#1D1B1A" fill-rule="nonzero" fill-opacity="1" transform="matrix(1.01897 0 0 1 485.415 39.0578)"/><path d="M11.2027 11.5956 10.8536 10.3796 9.09505 10.3796 8.73024 11.5956 7.64826 11.5956 9.30702 6.46972 10.629 6.46972 12.294 11.5956ZM10.601 9.47226 10.2892 8.35604C10.2892 8.3124 10.2549 8.24697 10.2268 8.15031 10.1987 8.05364 10.1676 7.95074 10.1364 7.83852 10.1052 7.72623 10.0772 7.60778 10.0491 7.48928 10.0231 7.38667 10.0032 7.28253 9.98985 7.17749 9.98985 7.22738 9.96807 7.28974 9.95245 7.35834 9.9369 7.42693 9.92128 7.50176 9.89942 7.57969 9.87764 7.65765 9.85893 7.7387 9.84023 7.81666 9.82153 7.89463 9.79659 7.96944 9.78097 8.04117 9.76535 8.1129 9.74356 8.17209 9.72794 8.22512 9.71239 8.27815 9.703 8.31863 9.69677 8.34357L9.38498 9.45979Z" fill="#1D1B1A" fill-rule="nonzero" fill-opacity="1" transform="matrix(1.01897 0 0 1 485.415 39.0578)"/><path d="M15.069 7.3178C14.879 7.31409 14.6909 7.35577 14.5203 7.43939 14.3594 7.52373 14.2215 7.64564 14.118 7.79481 14.0023 7.96073 13.9187 8.14685 13.8717 8.34357 13.8129 8.58017 13.7847 8.82323 13.7875 9.06696 13.7846 9.31122 13.8097 9.55496 13.8624 9.79344 13.9042 9.98535 13.9825 10.1673 14.0931 10.3297 14.1949 10.4729 14.3325 10.5869 14.4922 10.6602 14.6739 10.7392 14.8709 10.7775 15.069 10.7724 15.2787 10.7727 15.4879 10.7496 15.6926 10.7039 15.923 10.6511 16.1499 10.5844 16.3723 10.5044L16.3723 11.4116C16.1573 11.5009 15.9337 11.5677 15.7051 11.6112 15.5886 11.6333 15.4709 11.6489 15.3527 11.658 15.2249 11.6646 15.097 11.6646 14.9692 11.658 14.6191 11.6665 14.271 11.6028 13.9466 11.4709 13.6683 11.3546 13.4222 11.1728 13.2294 10.9408 13.0337 10.6978 12.8913 10.4163 12.8116 10.1146 12.7168 9.76505 12.6706 9.40414 12.6744 9.04203 12.6709 8.68164 12.7235 8.32299 12.8303 7.97883 12.9294 7.68184 13.0862 7.4074 13.2917 7.17126 13.4919 6.93092 13.7448 6.73995 14.0307 6.61314 14.3554 6.47779 14.7049 6.41194 15.0565 6.41983 15.314 6.42036 15.5705 6.45176 15.8204 6.51337 16.0718 6.57732 16.3162 6.66612 16.55 6.77839L16.2133 7.65765C16.0252 7.5688 15.8327 7.48975 15.6365 7.42069 15.4547 7.35372 15.2627 7.31889 15.069 7.3178Z" fill="#1D1B1A" fill-rule="nonzero" fill-opacity="1" transform="matrix(1.01897 0 0 1 485.415 39.0578)"/><path d="M20.3321 11.5956 17.3918 11.5956 17.3918 6.49154 20.3321 6.49154 20.3321 7.37704 18.4613 7.37704 18.4613 8.4995 20.1887 8.4995 20.1887 9.38498 18.4738 9.38498 18.4738 10.7008 20.3445 10.7008Z" fill="#1D1B1A" fill-rule="nonzero" fill-opacity="1" transform="matrix(1.01897 0 0 1 485.415 39.0578)"/><path d="M24.1859 10.177C24.1895 10.3907 24.1492 10.603 24.0673 10.8005 23.9923 10.9809 23.8759 11.1411 23.7275 11.2682 23.5651 11.4064 23.3777 11.5122 23.1756 11.58 22.9328 11.6521 22.6805 11.6868 22.4274 11.6829 22.1873 11.6838 21.9479 11.6587 21.7133 11.608 21.4966 11.5578 21.287 11.4802 21.0897 11.3774L21.0897 10.3516C21.202 10.4077 21.3142 10.4576 21.4296 10.5074 21.5425 10.5581 21.6581 10.6028 21.7757 10.6415 21.8911 10.6806 22.0088 10.7129 22.128 10.7382 22.2442 10.7603 22.3621 10.7718 22.4803 10.7724 22.5857 10.7742 22.6907 10.7606 22.7921 10.732 22.8676 10.7087 22.9375 10.6705 22.9979 10.6197 23.0498 10.5729 23.0895 10.514 23.1133 10.4482 23.139 10.3784 23.1517 10.3043 23.1507 10.23 23.1467 10.1405 23.1199 10.0535 23.0727 9.97738 23.0294 9.89844 22.9711 9.82851 22.9012 9.77158 22.8198 9.7 22.7309 9.63728 22.6362 9.58455L22.2901 9.39122C22.181 9.33819 22.0625 9.26961 21.9285 9.19165 21.7927 9.10782 21.6671 9.00838 21.5543 8.89548 21.4263 8.77223 21.3209 8.62771 21.2425 8.46833 21.1593 8.27995 21.1188 8.0755 21.124 7.86969 21.1183 7.656 21.1577 7.44358 21.2394 7.24609 21.3077 7.07185 21.4142 6.91521 21.5512 6.78775 21.6991 6.65898 21.8722 6.56235 22.0594 6.50401 22.287 6.4372 22.524 6.40877 22.7609 6.41983 22.8808 6.41915 23.0006 6.42644 23.1195 6.44166 23.2371 6.45924 23.3537 6.48319 23.4687 6.51337 23.5871 6.54415 23.7037 6.58163 23.818 6.62562 23.9333 6.66927 24.0518 6.71915 24.1765 6.77839L23.8273 7.62025C23.7244 7.57037 23.6246 7.52673 23.5342 7.48928 23.4477 7.45309 23.3592 7.42184 23.2692 7.39575 23.1862 7.37177 23.1019 7.35303 23.0166 7.33962 22.9341 7.32616 22.8508 7.31886 22.7672 7.3178 22.6138 7.30807 22.463 7.36095 22.3494 7.46434 22.2504 7.56797 22.1986 7.70783 22.2059 7.85099 22.204 7.9288 22.2179 8.00624 22.2465 8.07858 22.2813 8.14903 22.329 8.21242 22.3868 8.26568 22.4633 8.33358 22.547 8.39314 22.6362 8.44339 22.736 8.50258 22.8607 8.57123 23.0041 8.64919 23.1476 8.72709 23.3378 8.83622 23.4843 8.93289 23.6232 9.02114 23.7509 9.12585 23.8647 9.24467 23.9672 9.36989 24.0464 9.51245 24.0986 9.6656 24.1574 9.82964 24.1869 10.0027 24.1859 10.177Z" fill="#1D1B1A" fill-rule="nonzero" fill-opacity="1" transform="matrix(1.01897 0 0 1 485.415 39.0578)"/><path d="M30.0164 11.5956 29.4583 10.0148 27.5563 10.0148 26.992 11.5956 26.3341 11.5956 28.2048 6.46972 28.7973 6.46972 30.668 11.5956ZM29.2525 9.43801 28.738 7.95697C28.738 7.91641 28.7069 7.86346 28.685 7.80419 28.6632 7.74493 28.6445 7.67951 28.6257 7.60778 28.607 7.53605 28.5821 7.46746 28.5634 7.38951 28.5447 7.31156 28.5229 7.23985 28.5042 7.16814 28.4854 7.24088 28.4667 7.31571 28.448 7.39263 28.4263 7.47058 28.4044 7.54228 28.3857 7.61401L28.3233 7.81043C28.3046 7.86969 28.2859 7.91957 28.2735 7.95697L27.7652 9.43801Z" fill="#009FE3" fill-rule="nonzero" fill-opacity="1" transform="matrix(1.01897 0 0 1 485.415 39.0578)"/><path d="M34.0573 10.23C34.0609 10.438 34.0195 10.6444 33.9356 10.8349 33.859 11.0107 33.7414 11.1657 33.5926 11.2869 33.4318 11.4173 33.2463 11.5139 33.047 11.5706 32.8116 11.636 32.5681 11.6675 32.3237 11.6642 32.0814 11.6659 31.8391 11.6461 31.6003 11.605 31.4045 11.5725 31.2143 11.5116 31.0359 11.4241L31.0359 10.8005C31.117 10.8379 31.2075 10.8723 31.3072 10.9097 31.4094 10.9471 31.5136 10.9794 31.619 11.0063 31.7281 11.0343 31.8435 11.0562 31.962 11.0749 32.0789 11.0909 32.1965 11.0992 32.3143 11.0998 32.6052 11.1231 32.8958 11.0497 33.1405 10.891 33.3217 10.7454 33.4218 10.5213 33.4087 10.2892 33.4081 10.1833 33.3912 10.0782 33.3588 9.97738 33.3208 9.87921 33.2599 9.79148 33.1811 9.72171 33.0766 9.63202 32.9613 9.55564 32.8381 9.49412 32.6978 9.42239 32.5263 9.34134 32.3018 9.25406 32.1141 9.18271 31.9336 9.09393 31.7625 8.989 31.6199 8.90089 31.4924 8.79033 31.3852 8.66166 31.286 8.54021 31.2118 8.40035 31.1669 8.25005 31.1157 8.0803 31.0914 7.90357 31.0952 7.72623 31.0925 7.5377 31.1297 7.35066 31.2043 7.17749 31.2766 7.02069 31.383 6.88216 31.5161 6.77216 31.6586 6.65648 31.8229 6.57061 31.9994 6.51961 32.2014 6.45868 32.4119 6.42925 32.623 6.4323 32.8746 6.42903 33.1256 6.45519 33.3713 6.51025 33.5739 6.55637 33.7716 6.62325 33.9606 6.7098L33.7267 7.25544C33.5605 7.18214 33.3885 7.12271 33.2123 7.07772 33.0177 7.02773 32.8175 7.00258 32.6168 7.00289 32.3801 6.98798 32.1459 7.05761 31.9557 7.19932 31.8002 7.33186 31.7141 7.52831 31.7219 7.73246 31.7197 7.85001 31.7378 7.96704 31.7749 8.07858 31.8126 8.17795 31.8722 8.26756 31.9495 8.34049 32.0427 8.42747 32.1478 8.50093 32.2613 8.55876 32.4219 8.63973 32.5862 8.71259 32.7539 8.77696 32.9448 8.85042 33.1299 8.93687 33.3089 9.03579 33.4586 9.11796 33.5942 9.22319 33.7111 9.34758 33.8171 9.45844 33.8988 9.59011 33.9512 9.73417 34.0151 9.89198 34.051 10.0598 34.0573 10.23Z" fill="#009FE3" fill-rule="nonzero" fill-opacity="1" transform="matrix(1.01897 0 0 1 485.415 39.0578)"/><path d="M37.7614 10.23C37.7651 10.438 37.7236 10.6444 37.6398 10.8349 37.5618 11.0099 37.4442 11.1646 37.2968 11.2869 37.1359 11.4173 36.9504 11.5139 36.7511 11.5706 36.5157 11.6358 36.2722 11.6673 36.0278 11.6642 35.7855 11.6661 35.5433 11.6463 35.3044 11.605 35.1086 11.5725 34.9184 11.5116 34.7401 11.4241L34.7401 10.8005C34.8211 10.8379 34.9084 10.8723 35.0113 10.9097 35.1136 10.9472 35.2177 10.9795 35.3231 11.0063 35.4353 11.0343 35.5507 11.0562 35.6692 11.0749 35.7861 11.0909 35.9036 11.0992 36.0216 11.0998 36.3125 11.1231 36.603 11.0497 36.8478 10.891 37.0289 10.7454 37.129 10.5213 37.1159 10.2892 37.1162 10.183 37.0981 10.0776 37.0629 9.97738 37.0274 9.87794 36.9659 9.78968 36.8852 9.72171 36.7823 9.63127 36.6682 9.55473 36.5453 9.49412 36.405 9.42239 36.2335 9.34134 36.0091 9.25406 35.821 9.18323 35.6405 9.09453 35.4696 8.989 35.3272 8.90089 35.1996 8.79033 35.0924 8.66166 34.9932 8.53961 34.9181 8.39998 34.871 8.25005 34.8211 8.08 34.7971 7.90342 34.7993 7.72623 34.7981 7.53447 34.8395 7.34489 34.9209 7.17126 34.9932 7.01445 35.0996 6.87593 35.2327 6.76593 35.3749 6.64965 35.5395 6.56373 35.7159 6.51337 35.918 6.45226 36.1284 6.4228 36.3396 6.42607 36.5902 6.42261 36.8403 6.44877 37.0848 6.50401 37.2883 6.55066 37.487 6.61751 37.6772 6.70356L37.4433 7.24921C37.2762 7.17543 37.1029 7.11597 36.9257 7.07148 36.7324 7.02131 36.5332 6.99619 36.3333 6.99665 36.0967 6.98122 35.8622 7.05088 35.6723 7.19308 35.5167 7.32562 35.4307 7.52208 35.4385 7.72623 35.4363 7.84378 35.4544 7.9608 35.4915 8.07234 35.5292 8.17171 35.5888 8.26132 35.6661 8.33425 35.759 8.42146 35.8641 8.49499 35.9778 8.55253 36.1119 8.6211 36.2897 8.69283 36.4737 8.77072 36.6644 8.84418 36.8497 8.93064 37.0286 9.02956 37.1774 9.1118 37.312 9.21696 37.4277 9.34134 37.5356 9.45116 37.6186 9.58305 37.6709 9.72794 37.7302 9.88868 37.7611 10.0587 37.7614 10.23Z" fill="#009FE3" fill-rule="nonzero" fill-opacity="1" transform="matrix(1.01897 0 0 1 485.415 39.0578)"/><path d="M42.9433 9.04203C42.9474 9.40541 42.9 9.76752 42.803 10.1177 42.7204 10.4208 42.577 10.7039 42.3821 10.9502 42.1957 11.1789 41.9587 11.3614 41.69 11.4834 41.3878 11.6132 41.0614 11.6769 40.7328 11.6705 40.3948 11.6784 40.0589 11.6146 39.7474 11.4834 39.4781 11.3638 39.2417 11.1809 39.0584 10.9502 38.8698 10.701 38.7351 10.4154 38.6624 10.1115 38.5717 9.75806 38.5277 9.39437 38.5315 9.02956 38.5274 8.66677 38.5714 8.30504 38.6624 7.95389 38.7388 7.65277 38.8782 7.37121 39.0708 7.1276 39.2567 6.89763 39.4952 6.71579 39.7662 6.59756 40.0786 6.4661 40.4156 6.40234 40.7545 6.41048 41.0813 6.40393 41.4056 6.46776 41.7055 6.59756 41.9728 6.71925 42.2085 6.90059 42.3946 7.1276 42.5895 7.3727 42.7329 7.65487 42.8155 7.95697 42.9094 8.31074 42.9524 8.67608 42.9433 9.04203ZM39.2018 9.04203C39.199 9.33143 39.2293 9.62008 39.2923 9.90257 39.344 10.135 39.4381 10.3559 39.5697 10.5542 39.6907 10.7273 39.8538 10.8668 40.0437 10.9595 40.2579 11.0603 40.493 11.1095 40.7296 11.103 40.9663 11.1101 41.2014 11.061 41.4156 10.9595 41.607 10.8681 41.7713 10.7284 41.8926 10.5542 42.0248 10.3564 42.1177 10.1353 42.167 9.90257 42.2833 9.33473 42.2833 8.74924 42.167 8.18148 42.1183 7.95059 42.0251 7.73134 41.8926 7.53605 41.7722 7.36338 41.6104 7.22395 41.4218 7.13073 41.2079 7.03217 40.9744 6.98418 40.739 6.99042 40.5017 6.98409 40.266 7.03207 40.0499 7.13073 39.8597 7.2242 39.6957 7.36351 39.5729 7.53605 39.4381 7.73096 39.343 7.95014 39.2923 8.18148 39.2302 8.46405 39.2009 8.75277 39.2049 9.04203Z" fill="#009FE3" fill-rule="nonzero" fill-opacity="1" transform="matrix(1.01897 0 0 1 485.415 39.0578)"/><path d="M46.0488 6.99042C45.8153 6.98696 45.5843 7.03597 45.3722 7.13384 45.1696 7.22654 44.9912 7.36535 44.8515 7.5392 44.7012 7.73126 44.589 7.95036 44.5211 8.18456 44.4399 8.46307 44.4013 8.75202 44.4057 9.04203 44.4001 9.33736 44.4347 9.63217 44.5086 9.91812 44.565 10.1532 44.6713 10.3734 44.8204 10.5636 44.9548 10.7365 45.1306 10.8726 45.3317 10.9595 45.5596 11.0549 45.805 11.1016 46.0519 11.0968 46.2499 11.0971 46.4476 11.0761 46.6412 11.0343 46.8283 10.9928 47.0123 10.946 47.1931 10.894L47.1931 11.4584C47.1027 11.4958 47.0123 11.5239 46.9218 11.5519 46.8273 11.5789 46.7317 11.6008 46.635 11.6174 46.5318 11.6343 46.4277 11.6457 46.3232 11.6518 46.211 11.6518 46.0862 11.6518 45.9491 11.6518 45.6092 11.6596 45.2712 11.5958 44.9575 11.4647 44.6872 11.3452 44.4499 11.1623 44.2654 10.9315 44.0742 10.6845 43.9355 10.4012 43.8569 10.099 43.7662 9.74769 43.7222 9.38603 43.7259 9.02332 43.7216 8.66414 43.773 8.30646 43.8787 7.9632 43.9688 7.65998 44.1207 7.37866 44.3246 7.13696 44.5235 6.90386 44.773 6.71934 45.0542 6.59756 45.3722 6.46554 45.714 6.40081 46.0581 6.40736 46.2992 6.40643 46.5396 6.43152 46.7753 6.48219 46.992 6.52965 47.2015 6.6051 47.3989 6.70669L47.1245 7.25232C46.9714 7.17428 46.8118 7.10961 46.6475 7.05901 46.4526 7.00582 46.2506 6.98271 46.0488 6.99042Z" fill="#009FE3" fill-rule="nonzero" fill-opacity="1" transform="matrix(1.01897 0 0 1 485.415 39.0578)"/><path d="M49.7186 11.5956 47.8697 11.5956 47.8697 11.2402 48.4715 11.0968 48.4715 6.99042 47.8697 6.85946 47.8697 6.49154 49.7186 6.49154 49.7186 6.85946 49.12 7.00289 49.12 11.0968 49.7186 11.2402Z" fill="#009FE3" fill-rule="nonzero" fill-opacity="1" transform="matrix(1.01897 0 0 1 485.415 39.0578)"/><path d="M53.6815 11.5956 53.1234 10.0148 51.2215 10.0148 50.654 11.5956 49.9992 11.5956 51.87 6.46972 52.4656 6.46972 54.3363 11.5956ZM52.9177 9.43801 52.4001 7.95697 52.3502 7.79481C52.3315 7.73562 52.3096 7.67012 52.2909 7.59839 52.2722 7.52673 52.2473 7.45811 52.2254 7.38015 52.2036 7.30221 52.1849 7.2305 52.1662 7.15878 52.1497 7.23152 52.131 7.30636 52.1101 7.38327 52.0914 7.46122 52.0696 7.53297 52.0477 7.60462 52.0259 7.67636 52.0072 7.74185 51.9885 7.80111 51.9697 7.8603 51.9511 7.91018 51.9355 7.94766L51.4459 9.43801Z" fill="#009FE3" fill-rule="nonzero" fill-opacity="1" transform="matrix(1.01897 0 0 1 485.415 39.0578)"/><path d="M56.4066 11.5956 55.7518 11.5956 55.7518 7.06524 54.2926 7.06524 54.2926 6.49154 57.8627 6.49154 57.8627 7.06524 56.4066 7.06524Z" fill="#009FE3" fill-rule="nonzero" fill-opacity="1" transform="matrix(1.01897 0 0 1 485.415 39.0578)"/><path d="M60.0639 11.5956 58.215 11.5956 58.215 11.2402 58.8137 11.0968 58.8137 6.99042 58.215 6.85946 58.215 6.49154 60.0639 6.49154 60.0639 6.85946 59.4622 7.00289 59.4622 11.0968 60.0639 11.2402Z" fill="#009FE3" fill-rule="nonzero" fill-opacity="1" transform="matrix(1.01897 0 0 1 485.415 39.0578)"/><path d="M65.2055 9.04203C65.2095 9.40541 65.162 9.76752 65.0651 10.1177 64.9797 10.4197 64.8369 10.7024 64.6442 10.9502 64.4577 11.1789 64.2207 11.3614 63.952 11.4834 63.6499 11.6132 63.3234 11.6769 62.9948 11.6705 62.6568 11.6784 62.321 11.6146 62.0096 11.4834 61.7398 11.3627 61.5029 11.1801 61.3173 10.9502 61.1274 10.703 60.9893 10.4197 60.912 10.1177 60.8203 9.76444 60.7752 9.40076 60.778 9.03579 60.7748 8.67285 60.8197 8.31112 60.912 7.96013 60.9884 7.65901 61.1278 7.37744 61.3205 7.13384 61.5063 6.90386 61.7449 6.72202 62.0158 6.60379 62.3282 6.47234 62.6653 6.40858 63.0042 6.41671 63.3309 6.41017 63.6552 6.47399 63.9552 6.60379 64.2223 6.72549 64.458 6.90682 64.6442 7.13384 64.8369 7.38047 64.9797 7.66216 65.0651 7.9632 65.1624 8.31435 65.2098 8.67759 65.2055 9.04203ZM61.4639 9.04203C61.4611 9.33143 61.4914 9.62008 61.5543 9.90257 61.6045 10.1355 61.6987 10.3567 61.8318 10.5542 61.9528 10.7273 62.1158 10.8668 62.3057 10.9595 62.7432 11.1508 63.2402 11.1508 63.6776 10.9595 63.8691 10.8681 64.0334 10.7284 64.1547 10.5542 64.2868 10.3568 64.3789 10.1354 64.426 9.90257 64.4877 9.62001 64.517 9.33128 64.5132 9.04203 64.517 8.75277 64.4877 8.46405 64.426 8.18148 64.3795 7.95036 64.2875 7.73089 64.1547 7.53605 64.0334 7.36438 63.8716 7.22516 63.6839 7.13073 63.4699 7.03217 63.2364 6.98418 63.001 6.99042 62.7637 6.98409 62.528 7.03207 62.312 7.13073 62.1218 7.2242 61.9578 7.36351 61.8349 7.53605 61.6993 7.73021 61.6036 7.94969 61.5543 8.18148 61.4923 8.46405 61.463 8.75277 61.467 9.04203Z" fill="#009FE3" fill-rule="nonzero" fill-opacity="1" transform="matrix(1.01897 0 0 1 485.415 39.0578)"/><path d="M70.1535 11.5956 69.4021 11.5956 66.8922 7.3708 66.8641 7.3708C66.8641 7.55167 66.8891 7.72938 66.8985 7.9071 66.9079 8.08481 66.9172 8.21888 66.9234 8.38105 66.9296 8.54314 66.9234 8.69283 66.9234 8.82691L66.9234 11.5956 66.3248 11.5956 66.3248 6.49154 67.0669 6.49154 69.5611 10.6945 69.5861 10.6945C69.5861 10.5168 69.5705 10.3422 69.5611 10.1707L69.5611 9.94313 69.5611 9.70924C69.5611 9.63127 69.5611 9.55646 69.5611 9.48473L69.5611 6.49154 70.1848 6.49154Z" fill="#009FE3" fill-rule="nonzero" fill-opacity="1" transform="matrix(1.01897 0 0 1 485.415 39.0578)"/></g></g></g><text fill="#0BA2E3" fill-opacity="1" font-family="Georgia,Georgia_MSFontService,sans-serif" font-style="italic" font-variant="normal" font-weight="400" font-stretch="normal" font-size="15" text-anchor="start" direction="ltr" writing-mode="lr-tb" unicode-bidi="normal" text-decoration="none" transform="matrix(0.75125 0 0 0.751111 37.8291 71)">August 15, 2022</text><text fill="#000000" fill-opacity="1" font-family="Segoe UI,Segoe UI_MSFontService,sans-serif" font-style="normal" font-variant="normal" font-weight="700" font-stretch="normal" font-size="25" text-anchor="start" direction="ltr" writing-mode="lr-tb" unicode-bidi="normal" text-decoration="none" transform="matrix(0.75125 0 0 0.751111 37.7973 52)">General Project Plan</text><text fill="#000000" fill-opacity="1" font-family="Segoe UI,Segoe UI_MSFontService,sans-serif" font-style="normal" font-variant="normal" font-weight="700" font-stretch="normal" font-size="25" text-anchor="start" direction="ltr" writing-mode="lr-tb" unicode-bidi="normal" text-decoration="none" transform="matrix(0.75125 0 0 0.751111 221.744 52)">–</text><text fill="#000000" fill-opacity="1" font-family="Segoe UI,Segoe UI_MSFontService,sans-serif" font-style="normal" font-variant="normal" font-weight="700" font-stretch="normal" font-size="25" text-anchor="start" direction="ltr" writing-mode="lr-tb" unicode-bidi="normal" text-decoration="none" transform="matrix(0.75125 0 0 0.751111 236.3 52)">Base Camp V1.0</text><path d="M32.2978 146.467 132.947 146.467 132.947 217.071 32.2978 217.071Z" fill="#0BA2E3" fill-rule="nonzero" fill-opacity="1" transform="scale(1.00018 1)"/><text fill="#000000" fill-opacity="1" font-family="Segoe UI,Segoe UI_MSFontService,sans-serif" font-style="normal" font-variant="normal" font-weight="400" font-stretch="normal" font-size="15" text-anchor="start" direction="ltr" writing-mode="lr-tb" unicode-bidi="normal" text-decoration="none" transform="matrix(0.75125 0 0 0.751111 38.6 180)">Base Camp V1.0</text><text fill="#000000" fill-opacity="1" font-family="Segoe UI,Segoe UI_MSFontService,sans-serif" font-style="normal" font-variant="normal" font-weight="400" font-stretch="normal" font-size="15" text-anchor="start" direction="ltr" writing-mode="lr-tb" unicode-bidi="normal" text-decoration="none" transform="matrix(0.75125 0 0 0.751111 121.237 180)">–</text><text fill="#000000" fill-opacity="1" font-family="Segoe UI,Segoe UI_MSFontService,sans-serif" font-style="normal" font-variant="normal" font-weight="400" font-stretch="normal" font-size="15" text-anchor="start" direction="ltr" writing-mode="lr-tb" unicode-bidi="normal" text-decoration="none" transform="matrix(0.75125 0 0 0.751111 37.3917 193)">Release Candidate</text><path d="M223.08 146.467 324.48 146.467 324.48 217.071 223.08 217.071Z" fill="#0BA2E3" fill-rule="nonzero" fill-opacity="1" transform="scale(1.00018 1)"/><text fill="#000000" fill-opacity="1" font-family="Segoe UI,Segoe UI_MSFontService,sans-serif" font-style="normal" font-variant="normal" font-weight="400" font-stretch="normal" font-size="15" text-anchor="start" direction="ltr" writing-mode="lr-tb" unicode-bidi="normal" text-decoration="none" transform="matrix(0.75125 0 0 0.751111 234.08 186)">Base Camp V1.0</text><path d="M414.613 146.467 515.262 146.467 515.262 217.071 414.613 217.071Z" fill="#0BA2E3" fill-rule="nonzero" fill-opacity="1" transform="scale(1.00018 1)"/><text fill="#000000" fill-opacity="1" font-family="Segoe UI,Segoe UI_MSFontService,sans-serif" font-style="normal" font-variant="normal" font-weight="400" font-stretch="normal" font-size="15" text-anchor="start" direction="ltr" writing-mode="lr-tb" unicode-bidi="normal" text-decoration="none" transform="matrix(0.75125 0 0 0.751111 420.874 180)">Base Camp V2.0</text><text fill="#000000" fill-opacity="1" font-family="Segoe UI,Segoe UI_MSFontService,sans-serif" font-style="normal" font-variant="normal" font-weight="400" font-stretch="normal" font-size="15" text-anchor="start" direction="ltr" writing-mode="lr-tb" unicode-bidi="normal" text-decoration="none" transform="matrix(0.75125 0 0 0.751111 503.512 180)">–</text><text fill="#000000" fill-opacity="1" font-family="Segoe UI,Segoe UI_MSFontService,sans-serif" font-style="normal" font-variant="normal" font-weight="400" font-stretch="normal" font-size="15" text-anchor="start" direction="ltr" writing-mode="lr-tb" unicode-bidi="normal" text-decoration="none" transform="matrix(0.75125 0 0 0.751111 419.666 193)">Release Candidate</text><path d="M35.6778 251.247 131.069 251.247 131.069 302.322 35.6778 302.322Z" stroke="#E5007D" stroke-width="0.625926" stroke-linecap="butt" stroke-linejoin="miter" stroke-miterlimit="8" stroke-opacity="1" fill="#FFFFFF" fill-rule="nonzero" fill-opacity="1" transform="scale(1.00018 1)"/><text fill="#000000" fill-opacity="1" font-family="Segoe UI,Segoe UI_MSFontService,sans-serif" font-style="normal" font-variant="normal" font-weight="400" font-stretch="normal" font-size="15" text-anchor="start" direction="ltr" writing-mode="lr-tb" unicode-bidi="normal" text-decoration="none" transform="matrix(0.75125 0 0 0.751111 73.8756 274)">Committer</text><text fill="#000000" fill-opacity="1" font-family="Segoe UI,Segoe UI_MSFontService,sans-serif" font-style="normal" font-variant="normal" font-weight="400" font-stretch="normal" font-size="15" text-anchor="start" direction="ltr" writing-mode="lr-tb" unicode-bidi="normal" text-decoration="none" transform="matrix(0.75125 0 0 0.751111 95.8467 288)">Group</text><g clip-path="url(#clip4)"><g clip-path="url(#clip5)"><g clip-path="url(#clip6)"><path d="M65.3389 267.872C65.3389 268.672 64.6908 269.32 63.8914 269.32 63.092 269.32 62.4439 268.672 62.4439 267.872 62.4439 267.073 63.092 266.425 63.8914 266.425 64.6908 266.425 65.3389 267.073 65.3389 267.872Z" fill="#000000" fill-rule="nonzero" fill-opacity="1" transform="scale(1.00018 1)"/><path d="M47.9694 267.872C47.9694 268.672 47.3214 269.32 46.5219 269.32 45.7225 269.32 45.0745 268.672 45.0745 267.872 45.0745 267.073 45.7225 266.425 46.5219 266.425 47.3214 266.425 47.9694 267.073 47.9694 267.872Z" fill="#000000" fill-rule="nonzero" fill-opacity="1" transform="scale(1.00018 1)"/><path d="M59.549 267.872C59.549 268.672 58.901 269.32 58.1016 269.32 57.3022 269.32 56.6541 268.672 56.6541 267.872 56.6541 267.073 57.3022 266.425 58.1016 266.425 58.901 266.425 59.549 267.073 59.549 267.872Z" fill="#000000" fill-rule="nonzero" fill-opacity="1" transform="scale(1.00018 1)"/><path d="M53.7592 267.872C53.7592 268.672 53.1111 269.32 52.3117 269.32 51.5123 269.32 50.8643 268.672 50.8643 267.872 50.8643 267.073 51.5123 266.425 52.3117 266.425 53.1111 266.425 53.7592 267.073 53.7592 267.872Z" fill="#000000" fill-rule="nonzero" fill-opacity="1" transform="scale(1.00018 1)"/><path d="M67.3364 274.965 66.4099 270.739C66.381 270.623 66.3231 270.507 66.2073 270.42 65.8599 270.16 65.4836 269.928 65.0494 269.813 64.673 269.697 64.2967 269.61 63.8914 269.61 63.4861 269.61 63.0808 269.668 62.7334 269.813 62.2992 269.957 61.9229 270.16 61.5755 270.42 61.4597 270.507 61.4018 270.623 61.3728 270.739L60.9965 272.447 60.6201 270.739C60.5912 270.623 60.5333 270.507 60.4175 270.42 60.0701 270.16 59.6938 269.928 59.2595 269.813 58.8832 269.697 58.5069 269.61 58.1016 269.61 57.6963 269.61 57.291 269.668 56.9436 269.813 56.5094 269.957 56.133 270.16 55.7856 270.42 55.6699 270.507 55.612 270.623 55.583 270.739L55.2067 272.417 55.2067 272.447 54.8304 270.739C54.8014 270.623 54.7435 270.507 54.6277 270.42 54.2803 270.16 53.9039 269.928 53.4697 269.813 53.0934 269.697 52.717 269.61 52.3117 269.61 51.9064 269.61 51.5012 269.668 51.1538 269.813 50.7195 269.957 50.3432 270.16 49.9958 270.42 49.88 270.507 49.8222 270.623 49.7932 270.739L49.4169 272.417 49.0405 270.739C49.0116 270.623 48.9537 270.507 48.8378 270.42 48.4905 270.16 48.1141 269.928 47.6799 269.813 47.3036 269.697 46.9272 269.61 46.5219 269.61 46.1166 269.61 45.7113 269.668 45.364 269.813 44.9297 269.957 44.5534 270.16 44.206 270.42 44.0902 270.507 44.0323 270.623 44.0034 270.739L43.077 274.937C42.9901 275.255 43.1928 275.602 43.5402 275.66 43.5691 275.66 43.5981 275.66 43.627 275.66 43.8876 275.66 44.1191 275.487 44.206 275.197L45.0745 271.346 45.0745 273.402 44.206 277.716 45.0745 277.716 45.0745 282.637 46.2325 282.637 46.2325 277.716 46.8114 277.716 46.8114 282.637 47.9694 282.637 47.9694 277.716 48.8378 277.716 47.9694 273.402 47.9694 271.346 48.8378 275.226C48.8958 275.487 49.1273 275.689 49.3879 275.689 49.6484 275.689 49.88 275.515 49.9379 275.226L50.8643 271.346 50.8643 275.978 50.8643 282.637 52.0223 282.637 52.0223 275.978 52.6012 275.978 52.6012 282.637 53.7592 282.637 53.7592 275.978 53.7592 271.346 54.6277 275.226C54.6856 275.487 54.9172 275.689 55.2067 275.689 55.2067 275.689 55.2067 275.689 55.2067 275.689 55.4672 275.689 55.6988 275.515 55.7567 275.226L56.6541 271.346 56.6541 273.431 55.7856 277.716 56.6541 277.716 56.6541 282.637 57.8121 282.637 57.8121 277.716 58.3911 277.716 58.3911 282.637 59.549 282.637 59.549 277.716 60.4175 277.716 59.549 273.373 59.549 271.346 60.4175 275.226C60.4754 275.487 60.707 275.689 60.9965 275.689 60.9965 275.689 60.9965 275.689 60.9965 275.689 60.9965 275.689 60.9965 275.689 60.9965 275.689 61.257 275.689 61.4886 275.515 61.5755 275.226L62.4439 271.346 62.4439 275.978 62.4439 282.637 63.6019 282.637 63.6019 275.978 64.1809 275.978 64.1809 282.637 65.3389 282.637 65.3389 275.978 65.3389 271.346 66.2073 275.226C66.2652 275.487 66.4968 275.689 66.7863 275.689 66.8442 275.689 66.9311 275.689 66.989 275.66 67.2495 275.544 67.3942 275.255 67.3364 274.965Z" fill="#000000" fill-rule="nonzero" fill-opacity="1" transform="scale(1.00018 1)"/></g></g></g><path d="M226.46 251.998 321.851 251.998 321.851 302.322 226.46 302.322Z" stroke="#E5007D" stroke-width="0.625926" stroke-linecap="butt" stroke-linejoin="miter" stroke-miterlimit="8" stroke-opacity="1" fill="#FFFFFF" fill-rule="nonzero" fill-opacity="1" transform="scale(1.00018 1)"/><text fill="#000000" fill-opacity="1" font-family="Segoe UI,Segoe UI_MSFontService,sans-serif" font-style="normal" font-variant="normal" font-weight="400" font-stretch="normal" font-size="15" text-anchor="start" direction="ltr" writing-mode="lr-tb" unicode-bidi="normal" text-decoration="none" transform="matrix(0.75125 0 0 0.751111 295.757 274)">User</text><text fill="#000000" fill-opacity="1" font-family="Segoe UI,Segoe UI_MSFontService,sans-serif" font-style="normal" font-variant="normal" font-weight="400" font-stretch="normal" font-size="15" text-anchor="start" direction="ltr" writing-mode="lr-tb" unicode-bidi="normal" text-decoration="none" transform="matrix(0.75125 0 0 0.751111 286.984 288)">Group</text><g clip-path="url(#clip7)"><g clip-path="url(#clip8)"><g clip-path="url(#clip9)"><path d="M261.328 283.008C261.328 283.473 260.952 283.849 260.487 283.849 260.023 283.849 259.646 283.473 259.646 283.008 259.646 282.544 260.023 282.168 260.487 282.168 260.952 282.168 261.328 282.544 261.328 283.008Z" fill="#000000" fill-rule="nonzero" fill-opacity="1" transform="scale(1.00018 1)"/><path d="M265.029 283.008C265.029 283.473 264.652 283.849 264.188 283.849 263.723 283.849 263.346 283.473 263.346 283.008 263.346 282.544 263.723 282.168 264.188 282.168 264.652 282.168 265.029 282.544 265.029 283.008Z" fill="#000000" fill-rule="nonzero" fill-opacity="1" transform="scale(1.00018 1)"/><path d="M253.927 283.008C253.927 283.473 253.55 283.849 253.085 283.849 252.62 283.849 252.244 283.473 252.244 283.008 252.244 282.544 252.62 282.168 253.085 282.168 253.55 282.168 253.927 282.544 253.927 283.008Z" fill="#000000" fill-rule="nonzero" fill-opacity="1" transform="scale(1.00018 1)"/><path d="M257.627 283.008C257.627 283.473 257.25 283.849 256.786 283.849 256.322 283.849 255.945 283.473 255.945 283.008 255.945 282.544 256.322 282.168 256.786 282.168 257.25 282.168 257.627 282.544 257.627 283.008Z" fill="#000000" fill-rule="nonzero" fill-opacity="1" transform="scale(1.00018 1)"/><path d="M246.525 283.008C246.525 283.473 246.148 283.849 245.684 283.849 245.219 283.849 244.843 283.473 244.843 283.008 244.843 282.544 245.219 282.168 245.684 282.168 246.148 282.168 246.525 282.544 246.525 283.008Z" fill="#000000" fill-rule="nonzero" fill-opacity="1" transform="scale(1.00018 1)"/><path d="M250.226 283.008C250.226 283.473 249.849 283.849 249.385 283.849 248.92 283.849 248.543 283.473 248.543 283.008 248.543 282.544 248.92 282.168 249.385 282.168 249.849 282.168 250.226 282.544 250.226 283.008Z" fill="#000000" fill-rule="nonzero" fill-opacity="1" transform="scale(1.00018 1)"/><path d="M242.824 283.008C242.824 283.473 242.447 283.849 241.983 283.849 241.518 283.849 241.142 283.473 241.142 283.008 241.142 282.544 241.518 282.168 241.983 282.168 242.447 282.168 242.824 282.544 242.824 283.008Z" fill="#000000" fill-rule="nonzero" fill-opacity="1" transform="scale(1.00018 1)"/><path d="M266.364 287.436 265.715 284.987C265.695 284.917 265.66 284.854 265.614 284.798 265.393 284.567 265.12 284.393 264.817 284.29 264.616 284.214 264.402 284.179 264.188 284.186 263.975 284.186 263.763 284.221 263.562 284.29 263.257 284.392 262.982 284.568 262.761 284.802 262.719 284.859 262.688 284.923 262.667 284.99L262.331 286.242 261.994 285C261.976 284.931 261.942 284.866 261.897 284.812 261.674 284.581 261.399 284.407 261.096 284.304 260.902 284.226 260.696 284.186 260.487 284.186 260.274 284.186 260.062 284.221 259.861 284.29 259.557 284.392 259.283 284.567 259.063 284.802 259.019 284.857 258.986 284.922 258.966 284.99L258.637 286.205 258.3 284.987C258.28 284.917 258.246 284.854 258.199 284.798 257.978 284.567 257.705 284.393 257.402 284.29 257.205 284.217 256.996 284.181 256.786 284.186 256.573 284.186 256.362 284.221 256.16 284.29 255.855 284.392 255.581 284.568 255.36 284.802 255.318 284.859 255.286 284.923 255.265 284.99L254.929 286.242 254.593 285C254.575 284.931 254.541 284.866 254.495 284.812 254.272 284.581 253.998 284.407 253.695 284.304 253.501 284.226 253.294 284.186 253.085 284.186 252.872 284.186 252.661 284.221 252.46 284.29 252.156 284.392 251.881 284.567 251.662 284.802 251.618 284.857 251.585 284.922 251.564 284.99L251.235 286.205 250.898 284.987C250.879 284.917 250.844 284.854 250.798 284.798 250.576 284.567 250.303 284.393 250.001 284.29 249.804 284.217 249.594 284.181 249.385 284.186 249.171 284.186 248.96 284.221 248.759 284.29 248.454 284.392 248.178 284.568 247.958 284.802 247.916 284.859 247.884 284.923 247.864 284.99L247.527 286.242 247.191 285C247.173 284.931 247.14 284.866 247.094 284.812 246.871 284.581 246.597 284.407 246.292 284.304 246.099 284.226 245.893 284.186 245.684 284.186 245.471 284.186 245.26 284.221 245.058 284.29 244.753 284.392 244.479 284.567 244.261 284.802 244.216 284.857 244.183 284.922 244.163 284.99L243.833 286.205 243.497 284.987C243.477 284.917 243.443 284.854 243.396 284.798 243.174 284.567 242.901 284.393 242.598 284.29 242.402 284.217 242.193 284.181 241.983 284.186 241.77 284.186 241.559 284.221 241.358 284.29 241.053 284.392 240.777 284.568 240.556 284.802 240.515 284.859 240.482 284.923 240.462 284.99L239.813 287.436C239.776 287.618 239.895 287.796 240.077 287.832 240.244 287.865 240.409 287.769 240.462 287.607L240.974 285.68 240.974 286.736 240.395 288.896 240.974 288.896 240.974 291.587 241.647 291.587 241.647 288.896 242.32 288.896 242.32 291.587 242.992 291.587 242.992 288.896 243.571 288.896 242.992 286.736 242.992 285.657 243.507 287.607C243.552 287.787 243.735 287.897 243.915 287.852 244.035 287.822 244.13 287.728 244.16 287.607L244.674 285.657 244.674 291.587 245.347 291.587 245.347 287.887 246.02 287.887 246.02 291.587 246.693 291.587 246.693 285.676 247.204 287.607C247.204 287.793 247.355 287.944 247.541 287.944 247.727 287.944 247.877 287.793 247.877 287.607L248.375 285.676 248.375 286.736 247.797 288.896 248.375 288.896 248.375 291.587 249.048 291.587 249.048 288.896 249.721 288.896 249.721 291.587 250.394 291.587 250.394 288.896 250.973 288.896 250.394 286.736 250.394 285.657 250.909 287.607C250.954 287.787 251.136 287.897 251.316 287.852 251.437 287.822 251.531 287.728 251.561 287.607L252.076 285.657 252.076 291.587 252.749 291.587 252.749 287.887 253.422 287.887 253.422 291.587 254.095 291.587 254.095 285.676 254.606 287.607C254.606 287.793 254.757 287.944 254.942 287.944 255.128 287.944 255.279 287.793 255.279 287.607L255.777 285.676 255.777 286.736 255.198 288.896 255.777 288.896 255.777 291.587 256.45 291.587 256.45 288.896 257.123 288.896 257.123 291.587 257.796 291.587 257.796 288.896 258.374 288.896 257.796 286.736 257.796 285.657 258.31 287.607C258.355 287.787 258.538 287.897 258.718 287.852 258.839 287.822 258.933 287.728 258.963 287.607L259.477 285.657 259.477 291.587 260.15 291.587 260.15 287.887 260.823 287.887 260.823 291.587 261.496 291.587 261.496 285.676 262.008 287.607C262.008 287.793 262.158 287.944 262.344 287.944 262.53 287.944 262.681 287.793 262.681 287.607L263.178 285.676 263.178 286.736 262.6 288.896 263.178 288.896 263.178 291.587 263.851 291.587 263.851 288.896 264.524 288.896 264.524 291.587 265.197 291.587 265.197 288.896 265.775 288.896 265.197 286.736 265.197 285.657 265.712 287.607C265.752 287.759 265.892 287.862 266.048 287.857 266.234 287.851 266.38 287.697 266.375 287.511 266.374 287.486 266.371 287.461 266.364 287.436Z" fill="#000000" fill-rule="nonzero" fill-opacity="1" transform="scale(1.00018 1)"/><path d="M260.487 273.757C260.952 273.757 261.328 273.38 261.328 272.915 261.328 272.451 260.952 272.074 260.487 272.074 260.023 272.074 259.646 272.451 259.646 272.915 259.646 273.38 260.023 273.757 260.487 273.757Z" fill="#000000" fill-rule="nonzero" fill-opacity="1" transform="scale(1.00018 1)"/><path d="M253.085 273.757C253.55 273.757 253.927 273.38 253.927 272.915 253.927 272.451 253.55 272.074 253.085 272.074 252.62 272.074 252.244 272.451 252.244 272.915 252.244 273.38 252.62 273.757 253.085 273.757Z" fill="#000000" fill-rule="nonzero" fill-opacity="1" transform="scale(1.00018 1)"/><path d="M256.786 273.757C257.25 273.757 257.627 273.38 257.627 272.915 257.627 272.451 257.25 272.074 256.786 272.074 256.322 272.074 255.945 272.451 255.945 272.915 255.945 273.38 256.322 273.757 256.786 273.757Z" fill="#000000" fill-rule="nonzero" fill-opacity="1" transform="scale(1.00018 1)"/><path d="M245.684 273.757C246.148 273.757 246.525 273.38 246.525 272.915 246.525 272.451 246.148 272.074 245.684 272.074 245.219 272.074 244.843 272.451 244.843 272.915 244.843 273.38 245.219 273.757 245.684 273.757Z" fill="#000000" fill-rule="nonzero" fill-opacity="1" transform="scale(1.00018 1)"/><path d="M249.385 273.757C249.849 273.757 250.226 273.38 250.226 272.915 250.226 272.451 249.849 272.074 249.385 272.074 248.92 272.074 248.543 272.451 248.543 272.915 248.543 273.38 248.92 273.757 249.385 273.757Z" fill="#000000" fill-rule="nonzero" fill-opacity="1" transform="scale(1.00018 1)"/><path d="M262.657 277.343 262.008 274.894C261.99 274.824 261.956 274.76 261.91 274.705 261.687 274.475 261.413 274.301 261.109 274.198 260.91 274.122 260.699 274.086 260.487 274.093 260.274 274.093 260.062 274.129 259.861 274.198 259.557 274.298 259.283 274.474 259.063 274.708 259.019 274.765 258.986 274.829 258.966 274.897L258.637 276.111 258.3 274.894C258.28 274.825 258.246 274.76 258.199 274.705 257.978 274.475 257.705 274.301 257.402 274.198 257.205 274.123 256.996 274.088 256.786 274.093 256.573 274.092 256.362 274.128 256.16 274.198 255.855 274.299 255.581 274.475 255.36 274.708 255.318 274.765 255.286 274.829 255.265 274.897L254.929 276.148 254.593 274.907C254.575 274.838 254.541 274.774 254.495 274.719 254.272 274.488 253.998 274.314 253.695 274.21 253.501 274.132 253.294 274.092 253.085 274.093 252.872 274.093 252.661 274.129 252.46 274.198 252.156 274.298 251.881 274.474 251.662 274.708 251.618 274.765 251.585 274.829 251.564 274.897L251.235 276.111 250.898 274.894C250.879 274.825 250.844 274.76 250.798 274.705 250.576 274.475 250.303 274.301 250.001 274.198 249.804 274.123 249.594 274.088 249.385 274.093 249.171 274.092 248.96 274.128 248.759 274.198 248.454 274.299 248.178 274.475 247.958 274.708 247.916 274.765 247.884 274.829 247.864 274.897L247.527 276.148 247.191 274.907C247.173 274.838 247.14 274.774 247.094 274.719 246.871 274.488 246.597 274.314 246.292 274.21 246.099 274.132 245.893 274.092 245.684 274.093 245.471 274.093 245.26 274.129 245.058 274.198 244.753 274.298 244.479 274.474 244.261 274.708 244.216 274.765 244.183 274.829 244.163 274.897L243.51 277.356C243.464 277.536 243.57 277.719 243.749 277.767L243.837 277.767C243.993 277.772 244.133 277.669 244.173 277.518L244.674 275.563 244.674 281.495 245.347 281.495 245.347 277.794 246.02 277.794 246.02 281.495 246.693 281.495 246.693 275.583 247.204 277.514C247.204 277.7 247.355 277.851 247.541 277.851 247.727 277.851 247.877 277.7 247.877 277.514L248.375 275.583 248.375 276.643 247.797 278.803 248.375 278.803 248.375 281.495 249.048 281.495 249.048 278.803 249.721 278.803 249.721 281.495 250.394 281.495 250.394 278.803 250.973 278.803 250.394 276.643 250.394 275.563 250.909 277.514C250.954 277.695 251.136 277.804 251.316 277.759 251.437 277.729 251.531 277.635 251.561 277.514L252.076 275.563 252.076 281.495 252.749 281.495 252.749 277.794 253.422 277.794 253.422 281.495 254.095 281.495 254.095 275.583 254.606 277.514C254.606 277.7 254.757 277.851 254.942 277.851 255.128 277.851 255.279 277.7 255.279 277.514L255.777 275.583 255.777 276.643 255.198 278.803 255.777 278.803 255.777 281.495 256.45 281.495 256.45 278.803 257.123 278.803 257.123 281.495 257.796 281.495 257.796 278.803 258.374 278.803 257.796 276.643 257.796 275.563 258.31 277.514C258.355 277.695 258.538 277.804 258.718 277.759 258.839 277.729 258.933 277.635 258.963 277.514L259.477 275.563 259.477 281.495 260.15 281.495 260.15 277.794 260.823 277.794 260.823 281.495 261.496 281.495 261.496 275.583 262.008 277.514C262.048 277.665 262.187 277.769 262.344 277.763 262.373 277.767 262.402 277.767 262.431 277.763 262.609 277.711 262.711 277.523 262.658 277.345 262.658 277.344 262.657 277.343 262.657 277.343Z" fill="#000000" fill-rule="nonzero" fill-opacity="1" transform="scale(1.00018 1)"/><path d="M253.085 263.663C253.55 263.663 253.927 263.287 253.927 262.822 253.927 262.358 253.55 261.982 253.085 261.982 252.62 261.982 252.244 262.358 252.244 262.822 252.244 263.287 252.62 263.663 253.085 263.663Z" fill="#000000" fill-rule="nonzero" fill-opacity="1" transform="scale(1.00018 1)"/><path d="M256.786 263.663C257.25 263.663 257.627 263.287 257.627 262.822 257.627 262.358 257.25 261.982 256.786 261.982 256.322 261.982 255.945 262.358 255.945 262.822 255.945 263.287 256.322 263.663 256.786 263.663Z" fill="#000000" fill-rule="nonzero" fill-opacity="1" transform="scale(1.00018 1)"/><path d="M249.385 263.663C249.849 263.663 250.226 263.287 250.226 262.822 250.226 262.358 249.849 261.982 249.385 261.982 248.92 261.982 248.543 262.358 248.543 262.822 248.543 263.287 248.92 263.663 249.385 263.663Z" fill="#000000" fill-rule="nonzero" fill-opacity="1" transform="scale(1.00018 1)"/><path d="M258.963 267.25 258.314 264.8C258.294 264.731 258.259 264.668 258.212 264.612 257.991 264.381 257.717 264.207 257.416 264.104 257.214 264.028 257.001 263.993 256.786 264 256.573 264 256.362 264.035 256.16 264.104 255.855 264.206 255.581 264.382 255.36 264.616 255.318 264.673 255.286 264.737 255.265 264.804L254.929 266.056 254.593 264.814C254.575 264.745 254.541 264.68 254.495 264.625 254.272 264.395 253.998 264.221 253.695 264.118 253.501 264.04 253.294 264 253.085 264 252.872 264 252.661 264.035 252.46 264.104 252.156 264.206 251.881 264.381 251.662 264.616 251.618 264.671 251.585 264.736 251.564 264.804L251.235 266.019 250.898 264.8C250.879 264.731 250.844 264.668 250.798 264.612 250.576 264.381 250.303 264.207 250.001 264.104 249.804 264.031 249.594 263.995 249.385 264 249.171 264 248.96 264.035 248.759 264.104 248.454 264.206 248.178 264.382 247.958 264.616 247.916 264.673 247.884 264.737 247.864 264.804L247.211 267.263C247.164 267.443 247.271 267.626 247.45 267.673 247.479 267.677 247.508 267.677 247.538 267.673 247.694 267.679 247.834 267.576 247.874 267.425L248.375 265.49 248.375 266.55 247.797 268.71 248.375 268.71 248.375 271.401 249.048 271.401 249.048 268.71 249.721 268.71 249.721 271.401 250.394 271.401 250.394 268.71 250.973 268.71 250.394 266.55 250.394 265.47 250.909 267.421C250.954 267.601 251.136 267.711 251.316 267.666 251.437 267.636 251.531 267.542 251.561 267.421L252.076 265.47 252.076 271.401 252.749 271.401 252.749 267.701 253.422 267.701 253.422 271.401 254.095 271.401 254.095 265.49 254.606 267.421C254.606 267.607 254.757 267.758 254.942 267.758 255.128 267.758 255.279 267.607 255.279 267.421L255.777 265.49 255.777 266.55 255.198 268.71 255.777 268.71 255.777 271.401 256.45 271.401 256.45 268.71 257.123 268.71 257.123 271.401 257.796 271.401 257.796 268.71 258.374 268.71 257.796 266.55 257.796 265.47 258.31 267.421C258.351 267.573 258.49 267.676 258.647 267.67L258.734 267.67C258.913 267.619 259.015 267.432 258.964 267.254 258.964 267.253 258.964 267.251 258.963 267.25Z" fill="#000000" fill-rule="nonzero" fill-opacity="1" transform="scale(1.00018 1)"/></g></g></g><path d="M414.613 240.356 515.262 240.356 515.262 310.96 414.613 310.96Z" fill="#0BA2E3" fill-rule="nonzero" fill-opacity="1" transform="scale(1.00018 1)"/><text fill="#000000" fill-opacity="1" font-family="Segoe UI,Segoe UI_MSFontService,sans-serif" font-style="normal" font-variant="normal" font-weight="400" font-stretch="normal" font-size="15" text-anchor="start" direction="ltr" writing-mode="lr-tb" unicode-bidi="normal" text-decoration="none" transform="matrix(0.75125 0 0 0.751111 435.588 260)">Component</text><text fill="#000000" fill-opacity="1" font-family="Segoe UI,Segoe UI_MSFontService,sans-serif" font-style="normal" font-variant="normal" font-weight="400" font-stretch="normal" font-size="15" text-anchor="start" direction="ltr" writing-mode="lr-tb" unicode-bidi="normal" text-decoration="none" transform="matrix(0.75125 0 0 0.751111 424.982 273)">Specifications &amp;</text><text fill="#000000" fill-opacity="1" font-family="Segoe UI,Segoe UI_MSFontService,sans-serif" font-style="normal" font-variant="normal" font-weight="400" font-stretch="normal" font-size="15" text-anchor="start" direction="ltr" writing-mode="lr-tb" unicode-bidi="normal" text-decoration="none" transform="matrix(0.75125 0 0 0.751111 434.836 287)">Certification</text><text fill="#000000" fill-opacity="1" font-family="Segoe UI,Segoe UI_MSFontService,sans-serif" font-style="normal" font-variant="normal" font-weight="400" font-stretch="normal" font-size="15" text-anchor="start" direction="ltr" writing-mode="lr-tb" unicode-bidi="normal" text-decoration="none" transform="matrix(0.75125 0 0 0.751111 447.213 300)">Criteria</text><path d="M53.3289 129.191C53.3289 125.457 56.3554 122.431 60.0889 122.431 63.8224 122.431 66.8489 125.457 66.8489 129.191 66.8489 132.925 63.8224 135.951 60.0889 135.951 56.3554 135.951 53.3289 132.925 53.3289 129.191Z" stroke="#E5007D" stroke-width="2.81667" stroke-linecap="butt" stroke-linejoin="miter" stroke-miterlimit="8" stroke-opacity="1" fill="#FFFFFF" fill-rule="evenodd" fill-opacity="1" transform="scale(1.00018 1)"/><text fill="#000000" fill-opacity="1" font-family="Segoe UI,Segoe UI_MSFontService,sans-serif" font-style="normal" font-variant="normal" font-weight="400" font-stretch="normal" font-size="15" text-anchor="start" direction="ltr" writing-mode="lr-tb" unicode-bidi="normal" text-decoration="none" transform="matrix(0.75125 0 0 0.751111 73.2994 134)">Today</text><path d="M133.322 181.988 220.237 181.988 220.237 182.301 133.322 182.301ZM219.611 180.267 223.367 182.144 219.611 184.022Z" fill="#6F6F6E" fill-rule="nonzero" fill-opacity="1" transform="scale(1.00018 1)"/><text fill="#000000" fill-opacity="1" font-family="Segoe UI,Segoe UI_MSFontService,sans-serif" font-style="normal" font-variant="normal" font-weight="400" font-stretch="normal" font-size="15" text-anchor="start" direction="ltr" writing-mode="lr-tb" unicode-bidi="normal" text-decoration="none" transform="matrix(0.75125 0 0 0.751111 150.776 113)">+8 Weeks</text><path d="M324.856 181.988 411.77 181.988 411.77 182.301 324.856 182.301ZM411.145 180.267 414.9 182.144 411.145 184.022Z" fill="#6F6F6E" fill-rule="nonzero" fill-opacity="1" transform="scale(1.00018 1)"/><text fill="#000000" fill-opacity="1" font-family="Segoe UI,Segoe UI_MSFontService,sans-serif" font-style="normal" font-variant="normal" font-weight="400" font-stretch="normal" font-size="15" text-anchor="start" direction="ltr" writing-mode="lr-tb" unicode-bidi="normal" text-decoration="none" transform="matrix(0.75125 0 0 0.751111 334.052 104)">+</text><text fill="#000000" fill-opacity="1" font-family="Segoe UI,Segoe UI_MSFontService,sans-serif" font-style="normal" font-variant="normal" font-weight="400" font-stretch="normal" font-size="15" text-anchor="start" direction="ltr" writing-mode="lr-tb" unicode-bidi="normal" text-decoration="none" transform="matrix(0.75125 0 0 0.751111 341.8 104)">16</text><text fill="#000000" fill-opacity="1" font-family="Segoe UI,Segoe UI_MSFontService,sans-serif" font-style="normal" font-variant="normal" font-weight="400" font-stretch="normal" font-size="15" text-anchor="start" direction="ltr" writing-mode="lr-tb" unicode-bidi="normal" text-decoration="none" transform="matrix(0.75125 0 0 0.751111 357.059 104)">Weeks</text><text fill="#000000" fill-opacity="1" font-family="Segoe UI,Segoe UI_MSFontService,sans-serif" font-style="normal" font-variant="normal" font-weight="400" font-stretch="normal" font-size="10" text-anchor="start" direction="ltr" writing-mode="lr-tb" unicode-bidi="normal" text-decoration="none" transform="matrix(0.75125 0 0 0.751111 334.052 114)">(+2 weeks of Christmas)</text><path d="M324.968 182.036 412.844 273.477 412.619 273.693 324.743 182.253ZM413.652 271.832 414.9 275.841 410.944 274.434Z" fill="#6F6F6E" fill-rule="nonzero" fill-opacity="1" transform="scale(1.00018 1)"/><text fill="#000000" fill-opacity="1" font-family="Segoe UI,Segoe UI_MSFontService,sans-serif" font-style="normal" font-variant="normal" font-weight="400" font-stretch="normal" font-size="15" text-anchor="start" direction="ltr" writing-mode="lr-tb" unicode-bidi="normal" text-decoration="none" transform="matrix(0.514888 0.546952 -0.547054 0.514793 363.97 216)">improve</text><path d="M106.724 145.919 107.103 143.012 108.158 140.086 109.879 137.314 112.21 134.65 115.055 132.137 118.463 129.77 122.383 127.598 126.721 125.57 131.529 123.732 136.709 122.083 142.265 120.624 148.102 119.447 154.265 118.506 160.711 117.801 167.344 117.377 174.211 117.236 181.032 117.377 187.665 117.847 194.064 118.553 200.182 119.542 206.016 120.765 211.525 122.177 216.661 123.827 221.373 125.712 225.712 127.739 229.538 129.912 232.898 132.278 235.745 134.793 237.982 137.459 239.656 140.234 240.513 142.909 239.917 143.099 239.072 140.459 239.102 140.525 237.459 137.803 237.487 137.842 235.28 135.214 235.313 135.247 232.497 132.759 232.524 132.78 229.19 130.433 229.216 130.449 225.414 128.29 225.435 128.301 221.117 126.282 221.133 126.29 216.439 124.412 216.459 124.419 211.342 122.776 211.36 122.781 205.868 121.373 205.881 121.376 200.06 120.155 200.074 120.158 193.971 119.172 193.987 119.174 187.603 118.471 187.615 118.471 180.996 118.002 181.011 118.003 174.204 117.862 174.217 117.862 167.363 118.003 167.377 118.002 160.758 118.425 160.772 118.423 154.341 119.128 154.353 119.125 148.204 120.064 148.218 120.062 142.397 121.235 142.415 121.232 136.876 122.686 136.891 122.683 131.727 124.325 131.744 124.319 126.956 126.151 126.976 126.142 122.657 128.16 122.677 128.15 118.78 130.31 118.807 130.293 115.427 132.64 115.456 132.618 112.639 135.106 112.667 135.078 110.368 137.706 110.398 137.665 108.708 140.388 108.736 140.329 107.703 143.193 107.719 143.127 107.344 145.999ZM241.964 142.077 240.731 146.091 238.259 142.697Z" fill="#6F6F6E" fill-rule="nonzero" fill-opacity="1" transform="scale(1.00018 1)"/><path d="M303.515 148.172 303.894 145.266 304.95 142.339 306.67 139.567 309.001 136.904 311.846 134.39 315.254 132.024 319.174 129.851 323.513 127.823 328.32 125.985 333.5 124.337 339.056 122.877 344.893 121.7 351.057 120.759 357.502 120.054 364.135 119.63 371.002 119.489 377.823 119.63 384.456 120.1 390.855 120.806 396.973 121.795 402.807 123.018 408.316 124.431 413.452 126.08 418.165 127.965 422.503 129.993 426.329 132.166 429.689 134.532 432.536 137.046 434.773 139.712 436.447 142.487 437.304 145.162 436.708 145.353 435.863 142.713 435.893 142.779 434.25 140.056 434.278 140.096 432.071 137.467 432.104 137.5 429.288 135.012 429.315 135.033 425.981 132.686 426.007 132.703 422.205 130.543 422.227 130.554 417.908 128.535 417.924 128.543 413.23 126.665 413.25 126.673 408.133 125.029 408.151 125.034 402.659 123.626 402.672 123.629 396.851 122.409 396.865 122.412 390.763 121.425 390.778 121.428 384.394 120.724 384.406 120.725 377.787 120.255 377.802 120.256 370.996 120.115 371.008 120.115 364.154 120.256 364.168 120.255 357.549 120.678 357.563 120.677 351.132 121.381 351.144 121.379 344.995 122.318 345.009 122.315 339.188 123.489 339.206 123.485 333.667 124.94 333.682 124.936 328.518 126.579 328.535 126.573 323.747 128.404 323.767 128.395 319.448 130.413 319.468 130.403 315.571 132.563 315.598 132.546 312.218 134.894 312.247 134.871 309.43 137.359 309.459 137.331 307.159 139.96 307.189 139.918 305.499 142.641 305.527 142.583 304.494 145.446 304.51 145.381 304.135 148.253ZM438.755 144.331 437.522 148.344 435.05 144.95Z" fill="#6F6F6E" fill-rule="nonzero" fill-opacity="1" transform="scale(1.00018 1)"/><text fill="#000000" fill-opacity="1" font-family="Segoe UI,Segoe UI_MSFontService,sans-serif" font-style="normal" font-variant="normal" font-weight="400" font-stretch="normal" font-size="10" text-anchor="start" direction="ltr" writing-mode="lr-tb" unicode-bidi="normal" text-decoration="none" transform="matrix(0.75125 0 0 0.751111 43.0573 113)">15.08.2022</text><text fill="#000000" fill-opacity="1" font-family="Segoe UI,Segoe UI_MSFontService,sans-serif" font-style="normal" font-variant="normal" font-weight="400" font-stretch="normal" font-size="10" text-anchor="start" direction="ltr" writing-mode="lr-tb" unicode-bidi="normal" text-decoration="none" transform="matrix(0.75125 0 0 0.751111 254.886 114)">14.10.2022</text><path d="M265.893 129.191C265.893 125.457 268.92 122.431 272.653 122.431 276.387 122.431 279.413 125.457 279.413 129.191 279.413 132.925 276.387 135.951 272.653 135.951 268.92 135.951 265.893 132.925 265.893 129.191Z" stroke="#000000" stroke-width="1.40833" stroke-linecap="butt" stroke-linejoin="miter" stroke-miterlimit="8" stroke-opacity="1" fill="#FFFFFF" fill-rule="evenodd" fill-opacity="1" transform="scale(1.00018 1)"/><text fill="#000000" fill-opacity="1" font-family="Segoe UI,Segoe UI_MSFontService,sans-serif" font-style="normal" font-variant="normal" font-weight="400" font-stretch="normal" font-size="10" text-anchor="start" direction="ltr" writing-mode="lr-tb" unicode-bidi="normal" text-decoration="none" transform="matrix(0.75125 0 0 0.751111 445.312 114)">16.02.2023</text><path d="M455.924 129.191C455.924 125.457 458.951 122.431 462.684 122.431 466.418 122.431 469.444 125.457 469.444 129.191 469.444 132.925 466.418 135.951 462.684 135.951 458.951 135.951 455.924 132.925 455.924 129.191Z" stroke="#000000" stroke-width="1.40833" stroke-linecap="butt" stroke-linejoin="miter" stroke-miterlimit="8" stroke-opacity="1" fill="#FFFFFF" fill-rule="evenodd" fill-opacity="1" transform="scale(1.00018 1)"/><path d="M82.8415 251.363 82.8415 220.577 83.154 220.577 83.154 251.363ZM81.12 221.202 82.9978 217.447 84.8756 221.202Z" fill="#6F6F6E" fill-rule="nonzero" fill-opacity="1" transform="scale(1.00018 1)"/><path d="M0.0389417-0.151558 137.581 35.1886 137.503 35.4917-0.0389417 0.151558ZM137.403 33.3657 140.573 36.1191 136.469 37.0031Z" fill="#6F6F6E" fill-rule="nonzero" fill-opacity="1" transform="matrix(1.00018 0 0 -1 83.0131 251.312)"/><text fill="#000000" fill-opacity="1" font-family="Segoe UI,Segoe UI_MSFontService,sans-serif" font-style="normal" font-variant="normal" font-weight="400" font-stretch="normal" font-size="15" text-anchor="start" direction="ltr" writing-mode="lr-tb" unicode-bidi="normal" text-decoration="none" transform="matrix(0.75125 0 0 0.751111 88.169 232)">provide/build</text><path d="M274.375 251.67 274.375 220.577 274.687 220.577 274.687 251.67ZM272.653 221.202 274.531 217.447 276.409 221.202Z" fill="#6F6F6E" fill-rule="nonzero" fill-opacity="1" transform="scale(1.00018 1)"/><text fill="#000000" fill-opacity="1" font-family="Segoe UI,Segoe UI_MSFontService,sans-serif" font-style="normal" font-variant="normal" font-weight="400" font-stretch="normal" font-size="15" text-anchor="start" direction="ltr" writing-mode="lr-tb" unicode-bidi="normal" text-decoration="none" transform="matrix(0.75125 0 0 0.751111 278.236 238)">approve</text><path d="M538.547 171.253 581.36 171.253 581.36 193.036 538.547 193.036Z" fill="#0BA2E3" fill-rule="nonzero" fill-opacity="1" transform="scale(1.00018 1)"/><text fill="#000000" fill-opacity="1" font-family="Segoe UI,Segoe UI_MSFontService,sans-serif" font-style="normal" font-variant="normal" font-weight="400" font-stretch="normal" font-size="9" text-anchor="start" direction="ltr" writing-mode="lr-tb" unicode-bidi="normal" text-decoration="none" transform="matrix(0.75125 0 0 0.751111 542.95 180)">Base Camp</text><text fill="#000000" fill-opacity="1" font-family="Segoe UI,Segoe UI_MSFontService,sans-serif" font-style="normal" font-variant="normal" font-weight="400" font-stretch="normal" font-size="9" text-anchor="start" direction="ltr" writing-mode="lr-tb" unicode-bidi="normal" text-decoration="none" transform="matrix(0.75125 0 0 0.751111 553.164 189)">V2.0</text><path d="M515.638 181.988 535.267 181.988 535.267 182.301 515.638 182.301ZM534.641 180.267 538.396 182.144 534.641 184.022Z" fill="#6F6F6E" fill-rule="nonzero" fill-opacity="1" transform="scale(1.00018 1)"/></g></svg>